<svg width="24" height="24" viewBox="0 0 24 24" fill="none" xmlns="http://www.w3.org/2000/svg">
<g id="guard">
<rect id="Rectangle 2045" width="24" height="24" rx="8" fill="#EF9F9F"/>
<g id="Group">
<path id="Vector" d="M15.3644 19.0097H13.5432C11.3016 19.0097 9.90063 17.6088 9.90063 15.3672V12.5302H14.2787C14.5659 12.5302 14.804 12.2921 14.804 12.0049C14.804 11.7177 14.5659 11.4795 14.2787 11.4795H9.90063V8.64254C9.90063 6.40099 11.3016 5.00002 13.5432 5.00002H15.3574C17.599 5.00002 18.9999 6.40099 18.9999 8.64254V15.3672C19.007 17.6088 17.606 19.0097 15.3644 19.0097Z" fill="#335661"/>
<path id="Vector_2" d="M6.79149 12.5304L8.2415 13.9804C8.34657 14.0854 8.39561 14.2185 8.39561 14.3516C8.39561 14.4847 8.34657 14.6248 8.2415 14.7229C8.03836 14.926 7.70212 14.926 7.49898 14.7229L5.15236 12.3763C4.94921 12.1731 4.94921 11.8369 5.15236 11.6338L7.49898 9.28713C7.70212 9.08399 8.03836 9.08399 8.2415 9.28713C8.44464 9.49027 8.44464 9.8265 8.2415 10.0296L6.79149 11.4797H9.90165V12.5304H6.79149Z" fill="#335661"/>
</g>
</g>
</svg>
