<svg width="24" height="24" viewBox="0 0 24 24" fill="none" xmlns="http://www.w3.org/2000/svg">
<g id="help">
<rect id="Rectangle 2045" width="24" height="24" rx="8" fill="#FDE180"/>
<path id="Vector" d="M16.25 5H8.75C6.5 5 5 6.46343 5 8.65857V13.0489C5 15.244 6.5 16.7074 8.75 16.7074V18.266C8.75 18.8513 9.4175 19.2026 9.9125 18.8733L13.25 16.7074H16.25C18.5 16.7074 20 15.244 20 13.0489V8.65857C20 6.46343 18.5 5 16.25 5ZM12.5 13.905C12.185 13.905 11.9375 13.6562 11.9375 13.3562C11.9375 13.0562 12.185 12.8074 12.5 12.8074C12.815 12.8074 13.0625 13.0562 13.0625 13.3562C13.0625 13.6562 12.815 13.905 12.5 13.905ZM13.445 10.8683C13.1525 11.0586 13.0625 11.183 13.0625 11.3879V11.5415C13.0625 11.8415 12.8075 12.0903 12.5 12.0903C12.1925 12.0903 11.9375 11.8415 11.9375 11.5415V11.3879C11.9375 10.5391 12.575 10.122 12.815 9.96101C13.0925 9.77809 13.1825 9.65369 13.1825 9.46345C13.1825 9.09759 12.875 8.79759 12.5 8.79759C12.125 8.79759 11.8175 9.09759 11.8175 9.46345C11.8175 9.76345 11.5625 10.0122 11.255 10.0122C10.9475 10.0122 10.6925 9.76345 10.6925 9.46345C10.6925 8.49027 11.5025 7.70002 12.5 7.70002C13.4975 7.70002 14.3075 8.49027 14.3075 9.46345C14.3075 10.2976 13.6775 10.7147 13.445 10.8683Z" fill="#335661"/>
</g>
</svg>
