<svg width="24" height="24" viewBox="0 0 24 24" fill="none" xmlns="http://www.w3.org/2000/svg">
<g id="guard">
<rect id="Rectangle 2045" width="24" height="24" rx="8" fill="#CED1D4"/>
<path id="Vector" d="M19 11.1591V7.71017C19 7.06594 18.5129 6.3353 17.908 6.09176L13.532 4.30051C12.5499 3.89983 11.4422 3.89983 10.4601 4.30051L6.08418 6.09176C5.48709 6.3353 5 7.06594 5 7.71017V11.1591C5 15.0009 7.78901 18.5991 11.5993 19.6518C11.8586 19.7225 12.1414 19.7225 12.4007 19.6518C16.211 18.5991 19 15.0009 19 11.1591ZM12.5892 12.534V14.6002C12.5892 14.9223 12.3221 15.1894 12 15.1894C11.6779 15.1894 11.4108 14.9223 11.4108 14.6002V12.534C10.6173 12.2826 10.0359 11.5441 10.0359 10.672C10.0359 9.58784 10.9158 8.70792 12 8.70792C13.0842 8.70792 13.9641 9.58784 13.9641 10.672C13.9641 11.5519 13.3827 12.2826 12.5892 12.534Z" fill="#335661"/>
</g>
</svg>
